<mxfile host="app.diagrams.net" modified="2023-06-27T11:31:08.441Z" agent="Mozilla/5.0 (Macintosh; Intel Mac OS X 10_15_7) AppleWebKit/537.36 (KHTML, like Gecko) Chrome/114.0.0.0 Safari/537.36" etag="2j8UKaYKgWs3cqE2fOOc" version="21.5.1" type="github">
  <diagram name="Page-1" id="YnCxePKjCOkT4rR3w1i1">
    <mxGraphModel dx="1194" dy="766" grid="1" gridSize="10" guides="1" tooltips="1" connect="1" arrows="1" fold="1" page="1" pageScale="1" pageWidth="850" pageHeight="1100" math="0" shadow="0">
      <root>
        <mxCell id="0" />
        <mxCell id="1" parent="0" />
        <mxCell id="1mWOUTHw5VeR7RJQ95Ex-1" value="" style="rounded=1;whiteSpace=wrap;html=1;strokeWidth=2;fillWeight=4;hachureGap=8;hachureAngle=45;fillColor=#1ba1e2;sketch=1;" vertex="1" parent="1">
          <mxGeometry x="100" y="130" width="190" height="110" as="geometry" />
        </mxCell>
        <mxCell id="1mWOUTHw5VeR7RJQ95Ex-2" value="Online Platforn" style="text;strokeColor=none;align=center;fillColor=none;html=1;verticalAlign=middle;whiteSpace=wrap;rounded=0;fontStyle=1;fontFamily=Comic Sans MS;fontSize=17;" vertex="1" parent="1">
          <mxGeometry x="110" y="70" width="150" height="30" as="geometry" />
        </mxCell>
        <mxCell id="1mWOUTHw5VeR7RJQ95Ex-3" value="" style="rounded=1;whiteSpace=wrap;html=1;strokeWidth=2;fillWeight=4;hachureGap=8;hachureAngle=45;fillColor=#1ba1e2;sketch=1;" vertex="1" parent="1">
          <mxGeometry x="350" y="130" width="190" height="110" as="geometry" />
        </mxCell>
        <mxCell id="1mWOUTHw5VeR7RJQ95Ex-4" value="" style="rounded=1;whiteSpace=wrap;html=1;strokeWidth=2;fillWeight=4;hachureGap=8;hachureAngle=45;fillColor=#1ba1e2;sketch=1;" vertex="1" parent="1">
          <mxGeometry x="620" y="130" width="190" height="110" as="geometry" />
        </mxCell>
        <mxCell id="1mWOUTHw5VeR7RJQ95Ex-5" value="In-Store Systems" style="text;strokeColor=none;align=center;fillColor=none;html=1;verticalAlign=middle;whiteSpace=wrap;rounded=0;fontStyle=1;fontFamily=Comic Sans MS;fontSize=17;" vertex="1" parent="1">
          <mxGeometry x="380" y="70" width="150" height="30" as="geometry" />
        </mxCell>
        <mxCell id="1mWOUTHw5VeR7RJQ95Ex-6" value="Shipping Systems" style="text;strokeColor=none;align=center;fillColor=none;html=1;verticalAlign=middle;whiteSpace=wrap;rounded=0;fontStyle=1;fontFamily=Comic Sans MS;fontSize=17;" vertex="1" parent="1">
          <mxGeometry x="640" y="70" width="150" height="30" as="geometry" />
        </mxCell>
        <mxCell id="1mWOUTHw5VeR7RJQ95Ex-7" value="Web/Mobile&lt;br&gt;Application" style="text;strokeColor=none;align=center;fillColor=none;html=1;verticalAlign=middle;whiteSpace=wrap;rounded=0;fontStyle=1;fontFamily=Comic Sans MS;fontSize=17;fontColor=#3399FF;labelBackgroundColor=default;labelBorderColor=none;" vertex="1" parent="1">
          <mxGeometry x="120" y="170" width="150" height="30" as="geometry" />
        </mxCell>
        <mxCell id="1mWOUTHw5VeR7RJQ95Ex-8" value="Point of Sale&lt;br&gt;(POS) System" style="text;strokeColor=none;align=center;fillColor=none;html=1;verticalAlign=middle;whiteSpace=wrap;rounded=0;fontStyle=1;fontFamily=Comic Sans MS;fontSize=17;fontColor=#3399FF;labelBackgroundColor=default;labelBorderColor=none;" vertex="1" parent="1">
          <mxGeometry x="380" y="170" width="150" height="30" as="geometry" />
        </mxCell>
        <mxCell id="1mWOUTHw5VeR7RJQ95Ex-9" value="Warehouse Management&lt;br&gt;System" style="text;strokeColor=none;align=center;fillColor=none;html=1;verticalAlign=middle;whiteSpace=wrap;rounded=0;fontStyle=1;fontFamily=Comic Sans MS;fontSize=17;fontColor=#3399FF;labelBackgroundColor=default;labelBorderColor=none;" vertex="1" parent="1">
          <mxGeometry x="640" y="170" width="150" height="30" as="geometry" />
        </mxCell>
        <mxCell id="1mWOUTHw5VeR7RJQ95Ex-10" value="" style="ellipse;whiteSpace=wrap;html=1;strokeWidth=2;fillWeight=2;hachureGap=8;fillColor=#990000;fillStyle=dots;sketch=1;" vertex="1" parent="1">
          <mxGeometry x="245" y="380" width="155" height="85" as="geometry" />
        </mxCell>
        <mxCell id="1mWOUTHw5VeR7RJQ95Ex-11" value="" style="ellipse;whiteSpace=wrap;html=1;strokeWidth=2;fillWeight=2;hachureGap=8;fillColor=#990000;fillStyle=dots;sketch=1;" vertex="1" parent="1">
          <mxGeometry x="512.5" y="380" width="160" height="90" as="geometry" />
        </mxCell>
        <mxCell id="1mWOUTHw5VeR7RJQ95Ex-13" value="Order" style="text;strokeColor=none;align=center;fillColor=none;html=1;verticalAlign=middle;whiteSpace=wrap;rounded=0;fontStyle=1;fontFamily=Comic Sans MS;fontSize=25;fontColor=#3399FF;labelBackgroundColor=default;labelBorderColor=none;" vertex="1" parent="1">
          <mxGeometry x="255" y="405" width="135" height="25" as="geometry" />
        </mxCell>
        <mxCell id="1mWOUTHw5VeR7RJQ95Ex-14" value="Ship" style="text;strokeColor=none;align=center;fillColor=none;html=1;verticalAlign=middle;whiteSpace=wrap;rounded=0;fontStyle=1;fontFamily=Comic Sans MS;fontSize=25;fontColor=#3399FF;labelBackgroundColor=default;labelBorderColor=none;" vertex="1" parent="1">
          <mxGeometry x="505" y="390" width="175" height="50" as="geometry" />
        </mxCell>
        <mxCell id="1mWOUTHw5VeR7RJQ95Ex-15" value="" style="rhombus;whiteSpace=wrap;html=1;strokeWidth=2;fillWeight=-1;hachureGap=8;fillStyle=cross-hatch;fillColor=#006600;sketch=1;" vertex="1" parent="1">
          <mxGeometry x="350" y="520" width="170" height="70" as="geometry" />
        </mxCell>
        <mxCell id="1mWOUTHw5VeR7RJQ95Ex-16" value="Data" style="text;strokeColor=none;align=center;fillColor=none;html=1;verticalAlign=middle;whiteSpace=wrap;rounded=0;fontStyle=1;fontFamily=Comic Sans MS;fontSize=25;fontColor=#3399FF;labelBackgroundColor=default;labelBorderColor=none;" vertex="1" parent="1">
          <mxGeometry x="365" y="535" width="135" height="35" as="geometry" />
        </mxCell>
        <mxCell id="1mWOUTHw5VeR7RJQ95Ex-30" value="" style="edgeStyle=none;orthogonalLoop=1;jettySize=auto;html=1;endArrow=classic;startArrow=classic;endSize=8;startSize=8;rounded=0;entryX=0.5;entryY=1;entryDx=0;entryDy=0;exitX=0.889;exitY=-0.029;exitDx=0;exitDy=0;exitPerimeter=0;" edge="1" parent="1" source="1mWOUTHw5VeR7RJQ95Ex-16" target="1mWOUTHw5VeR7RJQ95Ex-11">
          <mxGeometry width="100" relative="1" as="geometry">
            <mxPoint x="550" y="560" as="sourcePoint" />
            <mxPoint x="650" y="560" as="targetPoint" />
            <Array as="points" />
          </mxGeometry>
        </mxCell>
        <mxCell id="1mWOUTHw5VeR7RJQ95Ex-31" value="" style="edgeStyle=none;orthogonalLoop=1;jettySize=auto;html=1;endArrow=classic;startArrow=classic;endSize=8;startSize=8;rounded=0;entryX=0.5;entryY=1;entryDx=0;entryDy=0;" edge="1" parent="1" source="1mWOUTHw5VeR7RJQ95Ex-15">
          <mxGeometry width="100" relative="1" as="geometry">
            <mxPoint x="210" y="529" as="sourcePoint" />
            <mxPoint x="318" y="465" as="targetPoint" />
            <Array as="points" />
          </mxGeometry>
        </mxCell>
        <mxCell id="1mWOUTHw5VeR7RJQ95Ex-32" value="" style="edgeStyle=none;orthogonalLoop=1;jettySize=auto;html=1;endArrow=classic;startArrow=classic;endSize=8;startSize=8;rounded=0;entryX=0.5;entryY=1;entryDx=0;entryDy=0;exitX=0.458;exitY=-0.059;exitDx=0;exitDy=0;exitPerimeter=0;" edge="1" parent="1" source="1mWOUTHw5VeR7RJQ95Ex-10">
          <mxGeometry width="100" relative="1" as="geometry">
            <mxPoint x="90" y="304" as="sourcePoint" />
            <mxPoint x="198" y="240" as="targetPoint" />
            <Array as="points" />
          </mxGeometry>
        </mxCell>
        <mxCell id="1mWOUTHw5VeR7RJQ95Ex-33" value="" style="edgeStyle=none;orthogonalLoop=1;jettySize=auto;html=1;endArrow=classic;startArrow=classic;endSize=8;startSize=8;rounded=0;entryX=0.5;entryY=1;entryDx=0;entryDy=0;exitX=0.432;exitY=-0.047;exitDx=0;exitDy=0;exitPerimeter=0;" edge="1" parent="1" source="1mWOUTHw5VeR7RJQ95Ex-10">
          <mxGeometry width="100" relative="1" as="geometry">
            <mxPoint x="350" y="304" as="sourcePoint" />
            <mxPoint x="458" y="240" as="targetPoint" />
            <Array as="points" />
          </mxGeometry>
        </mxCell>
        <mxCell id="1mWOUTHw5VeR7RJQ95Ex-34" value="" style="edgeStyle=none;orthogonalLoop=1;jettySize=auto;html=1;endArrow=classic;startArrow=classic;endSize=8;startSize=8;rounded=0;entryX=0.5;entryY=1;entryDx=0;entryDy=0;exitX=0.453;exitY=-0.022;exitDx=0;exitDy=0;exitPerimeter=0;" edge="1" parent="1" source="1mWOUTHw5VeR7RJQ95Ex-11">
          <mxGeometry width="100" relative="1" as="geometry">
            <mxPoint x="610" y="304" as="sourcePoint" />
            <mxPoint x="718" y="240" as="targetPoint" />
            <Array as="points" />
          </mxGeometry>
        </mxCell>
        <mxCell id="1mWOUTHw5VeR7RJQ95Ex-35" value="" style="edgeStyle=none;orthogonalLoop=1;jettySize=auto;html=1;endArrow=classic;startArrow=classic;endSize=8;startSize=8;rounded=0;entryX=0.5;entryY=1;entryDx=0;entryDy=0;exitX=0.453;exitY=-0.056;exitDx=0;exitDy=0;exitPerimeter=0;" edge="1" parent="1" source="1mWOUTHw5VeR7RJQ95Ex-11">
          <mxGeometry width="100" relative="1" as="geometry">
            <mxPoint x="350" y="304" as="sourcePoint" />
            <mxPoint x="458" y="240" as="targetPoint" />
            <Array as="points" />
          </mxGeometry>
        </mxCell>
      </root>
    </mxGraphModel>
  </diagram>
</mxfile>
